# xmcd CD database file
#
# Track frame offsets:
#	150
#	21537
#	40062
#	64920
#	86427
#	108645
#	128600
#	145867
#	167442
#	185585
#
# Disc length: 2654 seconds
#
# Revision: 0
# Processed by: cddbd v1.5.1PL0 Copyright (c) Steve Scherf et al.
# Submitted via: CDex 1.50
#
DISCID=850a5c0a
DTITLE=神山純一 - Star Light Healing
DYEAR=2000
DGENRE=Healing
TTITLE0=おだやかな時
TTITLE1=白い森から
TTITLE2=ふるさとの川にたたずんで
TTITLE3=風の子守唄
TTITLE4=アルタイルの輝く草原
TTITLE5=木漏れ陽のテラス
TTITLE6=秋色のセレナーデ
TTITLE7=森のささやき
TTITLE8=クリスタルファンタジー
TTITLE9=スターライトヒーリング 富士山麓虫達の声
EXTD=YEAR: 2000
EXTT0=
EXTT1=
EXTT2=
EXTT3=
EXTT4=
EXTT5=
EXTT6=
EXTT7=
EXTT8=
EXTT9=
PLAYORDER=
